<mxfile host="app.diagrams.net" modified="2024-06-27T13:55:53.291Z" agent="Mozilla/5.0 (Windows NT 10.0; Win64; x64) AppleWebKit/537.36 (KHTML, like Gecko) Chrome/126.0.0.0 Safari/537.36 Edg/126.0.0.0" version="24.6.3" etag="A9YAZmfVx43cJYj1km9k" type="github">
  <diagram name="PÃ¡gina-1" id="Jgd_S9k8YFbY1Mg9aaFk">
    <mxGraphModel>
      <root>
        <mxCell id="0" />
        <mxCell id="1" parent="0" />
      </root>
    </mxGraphModel>
  </diagram>
</mxfile>
